PathFileType	4	(X/Y/Z)	RBDS05\RBDS05runT25.trc
DataRate	CameraRate	NumFrames	NumMarkers	Units	OrigDataRate	OrigDataStartFrame	OrigNumFrames
150.000000	150.000000	4	33	mm	150.000000	562	4500
Frame#	Time	L.ASIS			L.Heel.Bottom			L.Heel.Lateral			L.Heel.Top			L.Iliac.Crest			L.MT1			L.MT5			L.PSIS			L.Shank.Bottom.Lateral			L.Shank.Bottom.Medial			L.Shank.Top.Lateral			L.Shank.Top.Medial			L.Thigh.Bottom.Lateral			L.Thigh.Bottom.Medial			L.Thigh.Top.Lateral			L.Thigh.Top.Medial			R.ASIS			R.ASY			R.Heel.Bottom			R.Heel.Lateral			R.Heel.Top			R.Iliac.Crest			R.MT1			R.MT5			R.PSIS			R.Shank.Bottom.Lateral			R.Shank.Bottom.Medial			R.Shank.Top.Lateral			R.Shank.Top.Medial			R.Thigh.Bottom.Lateral			R.Thigh.Bottom.Medial			R.Thigh.Top.Lateral			R.Thigh.Top.Medial			
		X1	Y1	Z1	X2	Y2	Z2	X3	Y3	Z3	X4	Y4	Z4	X5	Y5	Z5	X6	Y6	Z6	X7	Y7	Z7	X8	Y8	Z8	X9	Y9	Z9	X10	Y10	Z10	X11	Y11	Z11	X12	Y12	Z12	X13	Y13	Z13	X14	Y14	Z14	X15	Y15	Z15	X16	Y16	Z16	X17	Y17	Z17	X18	Y18	Z18	X19	Y19	Z19	X20	Y20	Z20	X21	Y21	Z21	X22	Y22	Z22	X23	Y23	Z23	X24	Y24	Z24	X25	Y25	Z25	X26	Y26	Z26	X27	Y27	Z27	X28	Y28	Z28	X29	Y29	Z29	X30	Y30	Z30	X31	Y31	Z31	X32	Y32	Z32	X33	Y33	Z33	

563	3.746666666666667	2243.385130222658	963.4323937219208	898.9660288033251	1679.458978533862	275.8352220847509	997.3574533695761	1699.117465528389	257.0451269406175	948.5962826964069	1727.276361657918	287.6506575989778	987.7730930226477	2195.3428013431	1041.829787790343	867.3764928257017	1789.660510197022	100.7621775124728	1002.260407297835	1747.359570448237	122.5215554267013	909.1391399718033	2094.780284088042	1014.816289385987	972.1660660319938	1809.100734827594	300.1715042882803	911.6173210489499	1788.34261429023	325.2050565109608	951.2625654435732	1858.907902730137	361.4944420356272	894.5103032831955	1840.813781984264	389.8521289758972	935.7503472789957	2088.546781394943	624.770477479765	851.6486741313167	2031.764682467439	631.7078460167845	896.872214381518	2095.016094077637	735.1431002847974	848.8198089263108	2045.270757649122	741.4552791771998	896.5499769353198	2247.544389755625	972.4957792035788	1121.387898727844	2423.996078670739	133.1993327886933	1058.64681371901	2286.669991426786	19.29417156056057	1037.071835574165	2306.055929548235	38.46481091809424	1078.29148629612	2280.06770147046	66.52848011526865	1040.71700082315	2194.365594911344	1025.989532841593	1154.456125057735	2474.656035855108	104.8737173930576	1012.692150906538	2450.284558973836	81.88812401993918	1113.809998054175	2100.082026617931	1012.864677849253	1062.438017018772	2297.491957763674	184.637006338781	1101.066501225733	2260.387434132424	179.5930361504561	1061.147342349564	2271.323229283248	260.2850076128945	1113.836115332299	2236.042508958959	254.8772925555727	1072.914632782603	2252.799789041188	589.2787376544428	1149.037747752926	2189.703374393684	571.8572511683177	1116.288782269891	2213.800072211495	691.5169776232977	1166.260971225797	2153.790222348887	674.6909676584985	1134.472709948402	
564	3.753333333333333	2244.484257055202	959.9017466720949	900.228965698876	1679.624697991388	280.907711736207	997.8833728249439	1698.853273985363	261.9087401987694	949.0347873658189	1727.604250883468	291.9171778350673	988.2260738030506	2195.915718000707	1037.666293113151	867.9993749781841	1786.773278790269	103.9492662865991	1002.109175791967	1744.64613752498	126.751071752576	909.1210137572712	2095.155106752481	1010.368363890236	972.5210138292613	1809.999881304357	302.309208786239	911.5531523908362	1790.127679877501	328.0709540694317	951.2238922503725	1861.484402920584	362.1499845693172	894.1670611947412	1844.402477960506	391.1387962579298	935.3346147475532	2093.510629315683	619.5445426097936	850.7957094301554	2036.822596010426	625.2809445295183	896.3308021931034	2098.370082339822	729.9652026039928	848.7090074979574	2048.551328323117	735.2482546442376	896.4993092970938	2247.298110341034	969.2022395433796	1123.039349695122	2415.525111300979	126.624909142819	1056.811501085311	2274.091740990201	18.77524369716757	1036.076166643654	2294.403440235028	37.42166838182021	1077.044208506212	2269.670047703303	66.13044884473101	1039.211303833746	2193.57609132718	1022.256536401058	1155.490679938642	2464.89283102777	96.02188151342772	1011.100136338284	2439.866270663221	74.83201213047104	1112.225385644546	2099.774853795257	1008.702813913304	1062.783207395346	2290.849782367908	180.7245225602434	1099.82943640625	2253.325572376029	176.8529740228624	1060.216550753595	2266.816613474482	256.9647202962929	1113.095391176293	2231.111385575818	252.6655303930215	1072.446073017957	2253.763548103189	586.1589570956125	1149.141149918142	2190.673015769908	568.4239526055189	1116.572991333953	2214.273366182368	688.1683772285336	1166.471054241997	2154.211225408171	671.0021041757052	1134.865251400958	
565	3.76	2245.459058749992	956.0209576502341	901.4326159861039	1680.697924662752	285.3774851298787	998.2826323618941	1699.569962166414	266.2796862348715	949.3370492357625	1728.812442813354	295.6836015126346	988.6086824288942	2196.406185382093	1033.050394563571	868.55445233412	1785.111888314553	106.7946123279915	1001.686120636298	1743.206920316849	130.6937842137335	908.8233475087669	2095.369104723946	1005.509228376866	972.905670180366	1811.803930792407	304.013223700302	911.3707806276028	1792.810796888505	330.4908108867764	951.0419869620756	1864.91255951527	362.3479162405141	893.7182567075929	1848.800619738811	391.9519212574572	934.7630151207227	2098.806587150082	613.8873447559896	849.8980960635251	2042.198140295768	618.3523206357607	895.7049045402891	2101.900449356052	724.3361218674792	848.5409485306529	2052.022906898389	728.5211839352111	896.3895552291848	2246.935583195492	965.6564443518469	1124.667496768178	2405.936590463412	119.7628174243256	1055.031643916404	2259.944832690948	18.69866759160204	1035.153551991139	2281.223131229146	36.76054476090233	1075.85330723202	2257.922489769122	66.16781217210929	1037.705507745252	2192.732611909826	1018.118114172934	1156.545950381271	2453.859033377808	86.67701261597362	1009.630302807728	2428.075294075316	67.59439197333742	1110.844801390448	2099.262996174938	1004.243395665823	1063.108012314555	2283.553902065348	176.9216390551605	1098.670626245153	2245.551080799758	174.4227580604098	1059.457904251527	2261.993000149878	253.7885946624539	1112.490336816997	2225.80314446495	250.7842225554873	1072.198112357088	2255.06504546429	583.0521205679967	1149.418059309073	2191.995020275609	564.8791019948284	1117.082052523024	2214.93838040871	684.7683741753915	1166.84634694258	2154.820767078434	667.1478288383872	1135.471376200333	
566	3.766666666666667	2246.274547156076	951.8375563545161	902.5607450385966	1682.715148318852	289.2541622146077	998.541151579133	1701.305953377559	270.1593268341894	949.4875713910078	1730.949254966822	298.9511699285727	988.9115512879315	2196.818859491933	1027.999416523833	869.0265195372738	1784.703186780687	109.2661955689134	1000.97078968173	1743.079147228193	134.3092474154928	908.2309623984828	2095.38587250311	1000.290004122238	973.2904670452587	1814.565396188821	305.2658865763789	911.0782829514478	1796.413214965888	332.4574523436004	950.7031639067266	1869.231231489198	362.0844654582149	893.1661613137758	1854.020808854679	392.2978895193117	934.0297036964321	2104.444267436687	607.8910527643332	849.0068407535247	2047.866196094162	611.0335514888446	894.9891357873721	2105.630137677516	718.3424553525306	848.3357473332493	2055.682673825725	721.3775188656913	896.2027000708143	2246.428851923645	961.9431531294906	1126.245276177624	2395.401628892887	112.9851578404345	1053.341208319118	2244.690295681086	19.04209392128024	1034.347681400614	2266.923793614873	36.49734891498696	1074.775703462243	2245.138876388984	66.60186540182839	1036.277162027865	2191.829665770846	1013.630671746707	1157.609532552656	2441.78505572985	77.38702442462116	1008.286507375547	2415.235102589957	60.61860870419997	1109.687462677369	2098.510090663363	999.549708701541	1063.381671637887	2275.810671524569	173.413003088659	1097.646332785052	2237.273915642832	172.4466326076299	1058.944279473847	2256.994800511834	250.8961408305488	1112.065041012722	2220.265624953213	249.3348135895757	1072.229526519224	2256.595662292327	580.0161992503462	1149.902457918827	2193.57592720859	561.3090673523126	1117.79906418316	2215.712580584174	681.387576389238	1167.41411573001	2155.552634242742	663.2216702317213	1136.287502211665	
